<?xml version="1.0" standalone="no"?>
<!DOCTYPE svg PUBLIC "-//W3C//DTD SVG 1.1//EN" "http://www.w3.org/Graphics/SVG/1.1/DTD/svg11.dtd" >
<svg xmlns="http://www.w3.org/2000/svg">
<metadata>
Created by FontForge 20120731 at Thu Nov 10 14:11:58 2016
 By admin
</metadata>
<defs>
<font id="iconfont" horiz-adv-x="1024" >
  <font-face 
    font-family="iconfont"
    font-weight="500"
    font-stretch="normal"
    units-per-em="1024"
    panose-1="2 0 6 3 0 0 0 0 0 0"
    ascent="896"
    descent="-128"
    x-height="792"
    bbox="0 -148 1076.72 896.583"
    underline-thickness="0"
    underline-position="0"
    unicode-range="U+0078-E8CC"
  />
<missing-glyph 
 />
    <glyph glyph-name=".notdef" 
 />
    <glyph glyph-name=".notdef" 
 />
    <glyph glyph-name=".null" horiz-adv-x="0" 
 />
    <glyph glyph-name="nonmarkingreturn" horiz-adv-x="341" 
 />
    <glyph glyph-name="x" unicode="x" horiz-adv-x="1001" 
d="M281 543q-27 -1 -53 -1h-83q-18 0 -36.5 -6t-32.5 -18.5t-23 -32t-9 -45.5v-76h912v41q0 16 -0.5 30t-0.5 18q0 13 -5 29t-17 29.5t-31.5 22.5t-49.5 9h-133v-97h-438v97zM955 310v-52q0 -23 0.5 -52t0.5 -58t-10.5 -47.5t-26 -30t-33 -16t-31.5 -4.5q-14 -1 -29.5 -0.5
t-29.5 0.5h-32l-45 128h-439l-44 -128h-29h-34q-20 0 -45 1q-25 0 -41 9.5t-25.5 23t-13.5 29.5t-4 30v167h911zM163 247q-12 0 -21 -8.5t-9 -21.5t9 -21.5t21 -8.5q13 0 22 8.5t9 21.5t-9 21.5t-22 8.5zM316 123q-8 -26 -14 -48q-5 -19 -10.5 -37t-7.5 -25t-3 -15t1 -14.5
t9.5 -10.5t21.5 -4h37h67h81h80h64h36q23 0 34 12t2 38q-5 13 -9.5 30.5t-9.5 34.5q-5 19 -11 39h-368zM336 498v228q0 11 2.5 23t10 21.5t20.5 15.5t34 6h188q31 0 51.5 -14.5t20.5 -52.5v-227h-327z" />
    <glyph glyph-name="faxian" unicode="&#xe601;" 
d="M709 496v251h-645v-501h251v-251h407l143 -143h23v143h71v501h-250zM315 281h-215v430h573v-215h-358v-215zM923 31h-35h-36v-36v-79l-105 104l-10 11h-15h-371v429h572v-429z" />
    <glyph glyph-name="faxian1" unicode="&#xe602;" 
d="M512 -121q-114 0 -211 56.5t-153.5 153.5t-56.5 211t56.5 211t153.5 153.5t211 56.5t211 -56.5t153.5 -153.5t56.5 -211t-56.5 -211t-153.5 -153.5t-211 -56.5zM512 675q-102 0 -188.5 -50t-136.5 -136.5t-50 -188.5t50 -188.5t136.5 -136.5t188.5 -50t188.5 50
t136.5 136.5t50 188.5t-50 188.5t-136.5 136.5t-188.5 50zM664 38l-160 138q-49 3 -83 38.5t-34 85.5q0 31 16 60l-39 184l-7 24l163 -144q49 -3 83 -38.5t34 -85.5q0 -32 -16 -61l38 -183zM512 380q-33 0 -56.5 -23.5t-23.5 -56.5t23.5 -56.5t56.5 -23.5t56.5 23.5
t23.5 56.5t-23.5 56.5t-56.5 23.5z" />
    <glyph glyph-name="weixin" unicode="&#xe603;" 
d="M958 339q0 105 -59.5 194.5t-162.5 141.5t-224 52t-224 -52t-162.5 -141.5t-59.5 -194.5q0 -97 51 -181.5t142 -138.5v-125q0 -13 11 -19q4 -2 10 -2t11 3l57 38q1 1 3 2l65 44q49 -10 96 -10q121 0 224 52t162.5 141.5t59.5 195.5v0zM512 -8q-47 0 -96 10q-8 2 -16 -3
l-75 -50q-1 -1 -3 -2l-22 -15v99q0 12 -10 18q-86 48 -134.5 125t-48.5 165q0 94 54.5 174t147.5 126.5t203 46.5t203 -46.5t147.5 -126.5t54.5 -174t-54.5 -174t-147.5 -126.5t-203 -46.5v0zM368 323q0 -19 -13 -32.5t-32 -13.5t-32.5 13.5t-13.5 32.5t13.5 32.5t32.5 13.5
t32 -13.5t13 -32.5zM570 323q0 -19 -13.5 -32.5t-32.5 -13.5t-32 13.5t-13 32.5t13 32.5t32 13.5t32.5 -13.5t13.5 -32.5zM758 323q0 -19 -13.5 -32.5t-32.5 -13.5t-32.5 13.5t-13.5 32.5t13.5 32.5t32.5 13.5t32.5 -13.5t13.5 -32.5z" />
    <glyph glyph-name="xiaoxi" unicode="&#xe604;" 
d="M271 46q110 -62 241 -62q185 0 316.5 114.5t131.5 277.5t-131.5 277.5t-316.5 114.5t-316.5 -114.5t-131.5 -277.5q0 -122 79 -222l-30 -151q-2 -9 5.5 -15.5t16.5 -2.5zM174 166q-1 1 -2 3q-76 93 -76 207q0 149 122 254.5t294 105.5t294 -105.5t122 -254.5t-122 -254.5
t-294 -105.5q-126 0 -231 61q-7 5 -16 1l-143 -63l22 -18l32 158q1 5 -2 11z" />
    <glyph glyph-name="wo" unicode="&#xe631;" 
d="M860 137zM147 28q1 4 -0.5 22t3 46t14.5 40q40 44 160 86q45 16 72.5 39t27.5 40q0 22 -11.5 56t-29 38.5t-30 43.5t-12.5 63q0 10 3.5 14t6.5 3l3 -1q-2 7 -4.5 19.5t-2.5 49t10 68.5q9 30 28.5 51.5t39 31.5t42 15t31.5 5.5t14 0.5q4 0 13.5 -0.5t32.5 -5.5t43 -15
t39.5 -31.5t27.5 -51.5q9 -33 9.5 -67t-3.5 -52l-4 -18q2 0 4 0.5t5.5 -3t3.5 -13.5q0 -24 -12 -63t-29.5 -43.5t-30 -39t-12.5 -55.5q0 -16 28.5 -39.5t73.5 -39.5q140 -50 159 -86q7 -14 11 -42.5t5 -44.5t1 -21h-730v0zM147 28zM847 57q-5 49 -13 65q-6 13 -49 34
q-35 18 -94 39q-50 17 -84 45q-38 31 -38 61q0 26 14 62q18 50 49 60q15 18 21 33q8 22 9 35q0 12 -5 14q-3 1 -7.5 1h-7.5l-4 -1q1 2 2 8.5t3.5 23t3.5 33t-0.5 38t-6.5 40.5q-13 49 -66 70q-30 12 -61 12h-1v0h-1v0q-30 0 -60 -12q-51 -21 -67 -71q-8 -28 -8 -59t2 -43
t4 -19l7 -21h-12q-16 -5 1 -47q13 -32 15 -35q31 -10 48 -60q12 -36 12 -62q0 -30 -37 -61q-33 -28 -83 -45q-113 -40 -147 -79q-8 -8 -10 -45q0 -7 -1 -14h672v0z" />
    <glyph glyph-name="icsreturn" unicode="&#xe6a9;" 
d="M781 -90l-37 -38l-493 492q0 1 -1 2l-7 7l1 2q-1 5 -1 9t1 9l-1 2l7 7q1 1 1 2l493 492l37 -38l-474 -474l474 -474v0z" />
    <glyph glyph-name="zan" unicode="&#xe6ad;" horiz-adv-x="1078" 
d="M658 -128h-621q-18 0 -27.5 10.5t-9.5 26.5v548q0 15 11 26t26 11h219q17 0 38 -6t30 -15q22 18 43 41.5t49 64t45.5 96t17.5 116.5q0 29 10.5 50t25.5 31t30 16t26 6l11 1q3 1 10 1.5t26 -2t37 -8.5t39 -23t36.5 -42.5t26 -69t10.5 -99.5q0 -27 -9 -66.5t-18 -65.5
l-9 -26h110q4 0 11 1t27 1.5t39 -1.5t44 -9.5t44.5 -20t37 -35t26 -52.5t7 -75.5t-15.5 -101.5q-13 -47 -25 -85t-26 -69t-26.5 -54.5t-30.5 -42t-33.5 -31t-39 -21.5t-44 -14t-52 -8t-58.5 -3.5t-68 -0.5v0zM73 421v-476h146h37v476v0h-183zM841 421h-256q5 4 12.5 12
t27 34.5t34.5 53.5t27.5 68t12.5 80q0 156 -100 156q-28 0 -40 -8.5t-12 -25.5q0 -53 -12 -104.5t-31 -90.5t-42.5 -74t-46.5 -60t-42.5 -43t-31.5 -26l-12 -9v-439h329q48 0 73.5 1t60 6t53.5 15t42.5 28t38.5 46t31 67t30 93q15 56 15 98.5t-11 66t-31 37.5t-38 18
t-39.5 4t-29 -1.5l-12.5 -2.5v0v0z" />
    <glyph glyph-name="dangan" unicode="&#xe78b;" 
d="M353 582v154q0 1 -0.5 2l-0.5 1v7v0q-3 26 -18.5 43t-37.5 17h-197q-22 0 -37.5 -17t-18.5 -43h-1v-228h1v-63l-0.5 -1t-0.5 -2v-433h1q3 -25 18.5 -42.5t36.5 -17.5h198q22 0 37.5 17t18.5 43v0v5h1v498h-1v57q0 1 0.5 2zM197 133zM113 133q0 -35 25 -59.5t59.5 -24.5
t59.5 24.5t25 59.5t-25 59.5t-59.5 24.5t-59.5 -24.5t-25 -59.5zM121 703h153v-390h-153v390zM197 133zM158 133q0 -16 11.5 -27.5t28 -11.5t28 11.5t11.5 27.5t-11.5 27.5t-28 11.5t-28 -11.5t-11.5 -27.5zM663 582v154v2v1v7h-1q-3 26 -18.5 43t-36.5 17h-198
q-21 0 -37 -17t-19 -43v0v-228v0v-63v-1v-2v-433v0q3 -25 19 -42.5t37 -17.5h198q21 0 36.5 17t18.5 43h1v5v0v498v0v57v2v1zM508 133zM424 133q0 -35 24.5 -59.5t59.5 -24.5t59.5 24.5t24.5 59.5t-24.5 59.5t-59.5 24.5t-59.5 -24.5t-24.5 -59.5zM431 703h154v-390h-154
v390zM508 133zM469 133q0 -16 11.5 -27.5t27.5 -11.5t27.5 11.5t11.5 27.5t-11.5 27.5t-27.5 11.5t-27.5 -11.5t-11.5 -27.5zM977 582v154v2v1v7h-1q-3 26 -18.5 43t-36.5 17h-198q-21 0 -37 -17t-19 -43v0v-228v0v-63v-1v-2v-433v0q3 -25 19 -42.5t37 -17.5h198
q21 0 36.5 17t18.5 43h1v5v0v498v0v57v2v1zM822 133zM738 133q0 -35 24.5 -59.5t59.5 -24.5t59.5 24.5t24.5 59.5t-24.5 59.5t-59.5 24.5t-59.5 -24.5t-24.5 -59.5zM745 703h154v-390h-154v390zM822 133zM783 133q0 -16 11.5 -27.5t27.5 -11.5t27.5 11.5t11.5 27.5
t-11.5 27.5t-27.5 11.5t-27.5 -11.5t-11.5 -27.5z" />
    <glyph glyph-name="hongben" unicode="&#xe78c;" 
d="M822 852v1h-659v-938h470h2h1h176h2h1h7v1q26 4 43 23t17 45v800q0 26 -17 45t-43 23zM142 734h202v-86h-202v86zM142 530h202v-87h-202v87zM142 325h202v-87h-202v87zM142 120h202v-86h-202v86zM741 866h43v-964h-43v964z" />
    <glyph glyph-name="jianpan" unicode="&#xe78f;" 
d="M1012 513v131v1.5v1.5v5h-1q-2 19 -16.5 31.5t-34.5 12.5h-890q-20 0 -34.5 -12.5t-16.5 -31.5h-1v-187v0v-37v-1.5v-0.5v-285v-0.5v-1.5v-5h1q2 -19 16.5 -32t34.5 -13h890q20 0 34.5 13t16.5 32h1v339v0v38v0.5v1.5zM206 258h393v-71h-393v71zM634 258h76v-71h-76v71z
M747 258h76v-71h-76v71zM859 258h76v-71h-76v71zM95 258h76v-71h-76v71zM206 271h393v-72h-393v72zM634 271h76v-72h-76v72zM747 271h76v-72h-76v72zM859 271h76v-72h-76v72zM753 384h179v-72h-179v72zM753 396h179v-72h-179v72zM428 504h73v-72h-73v72zM536 504h74v-72h-74
v72zM645 504h73v-72h-73v72zM428 516h73v-72h-73v72zM536 516h74v-72h-74v72zM645 516h73v-72h-73v72zM95 504h73v-72h-73v72zM203 504h74v-72h-74v72zM312 504h73v-72h-73v72zM95 516h73v-72h-73v72zM203 516h74v-72h-74v72zM312 516h73v-72h-73v72zM428 385h73v-72h-73v72
zM536 385h74v-72h-74v72zM645 385h73v-72h-73v72zM428 397h73v-72h-73v72zM536 397h74v-72h-74v72zM645 397h73v-72h-73v72zM95 385h73v-72h-73v72zM203 385h74v-72h-74v72zM312 385h73v-72h-73v72zM95 397h73v-72h-73v72zM203 397h74v-72h-74v72zM312 397h73v-72h-73v72z
M428 590h73v-35h-73v35zM536 590h74v-35h-74v35zM645 590h73v-35h-73v35zM428 599h73v-35h-73v35zM536 599h74v-35h-74v35zM645 599h73v-35h-73v35zM750 504h74v-72h-74v72zM859 504h73v-72h-73v72zM750 516h74v-72h-74v72zM859 516h73v-72h-73v72zM750 590h74v-35h-74v35z
M859 590h73v-35h-73v35zM750 599h74v-35h-74v35zM859 599h73v-35h-73v35zM95 590h73v-35h-73v35zM203 590h74v-35h-74v35zM312 590h73v-35h-73v35zM95 599h73v-35h-73v35zM203 599h74v-35h-74v35zM312 599h73v-35h-73v35zM95 271h76v-72h-76v72z" />
    <glyph glyph-name="wenjian" unicode="&#xe790;" 
d="M913 -45q0 -19 -10.5 -32t-26.5 -13l-708 -1q-15 0 -26 13.5t-11 31.5l-1 859q0 19 11 32t26 13l521 1l225 -211v-693zM913 643h-189q-15 0 -26 13t-11 31v166zM721 499q0 -9 -6.5 -15.5t-16.5 -6.5h-372q-9 0 -15.5 6.5t-6.5 15.5t6.5 16t15.5 7h372q10 0 16.5 -7
t6.5 -16zM721 330q0 -9 -6.5 -16t-16.5 -7h-372q-9 0 -15.5 7t-6.5 16t6.5 16t15.5 7h372q10 0 16.5 -7t6.5 -16zM721 149.5q0 -9.5 -6.5 -16t-16.5 -6.5h-372q-9 0 -15.5 6.5t-6.5 16t6.5 16t15.5 6.5h372q10 0 16.5 -6.5t6.5 -16z" />
    <glyph glyph-name="settings" unicode="&#xe8cb;" 
d="M845 316q4 30 4 47t-4 47l96 68q7 5 9 13t-3 17l-94 158q-11 18 -27 8l-107 -49q-38 29 -81 47l-11 117q-1 9 -7 14.5t-14 5.5h-184q-8 0 -14.5 -6t-6.5 -14l-11 -117q-49 -21 -81 -47l-106 49q-8 3 -16.5 0.5t-11.5 -8.5l-92 -158q-4 -9 -2 -17t9 -13l96 -68
q-5 -30 -5 -47t5 -47l-101 -69q-6 -5 -8.5 -13t2.5 -16l92 -158q11 -19 27 -9l107 49q38 -28 81 -47l11 -117q1 -8 7 -13.5t14 -5.5h184q8 0 14.5 5.5t6.5 13.5l11 117q49 22 81 47l106 -49q8 -3 16.5 -0.5t11.5 9.5l92 158q4 8 2 16t-9 13zM512 149q-88 0 -150.5 63
t-62.5 151t62.5 150.5t150.5 62.5t150.5 -62.5t62.5 -150.5t-62.5 -151t-150.5 -63zM512 619q-106 0 -181 -75.5t-75 -181t75 -180.5t181 -75t181 75t75 180.5t-75 181t-181 75.5zM512 256q-45 0 -76 31t-31 75.5t31 75.5t76 31t76 -31t31 -75.5t-31 -75.5t-76 -31z" />
    <glyph glyph-name="services" unicode="&#xe8cc;" 
d="M546 162q2 9 2 30q0 19 -2 30l60 43q12 7 4 19l-57 98q-7 10 -18 6l-66 -32q-17 15 -51 30l-6 73q0 4 -4 8t-9 4h-113q-5 0 -9 -4t-4 -8l-8 -75q-21 -7 -52 -30l-66 30q-13 4 -17 -6l-57 -99q-8 -11 4 -19l60 -42q-3 -9 -3 -30q0 -19 3 -30l-60 -43q-12 -8 -4 -19l57 -98
q7 -10 17 -7l66 30q18 -14 52 -30l6 -72q0 -5 4 -9t9 -4h113q5 0 9 4t4 9l6 72q20 7 51 30l66 -30q14 -4 17 7l58 98q8 11 -4 19zM341.5 85q-44.5 0 -75.5 31t-31 76t31 76t75.5 31t75.5 -31t31 -76t-31 -76t-75.5 -31zM894 570q2 10 2 27t-2 28l53 38q8 6 4 18l-53 91
q-7 11 -17 5l-62 -28q-20 14 -47 28l-6 66q1 4 -1.5 7t-7.5 3h-104q-5 0 -9 -3t-4 -7l-6 -66q-26 -10 -47 -28l-62 28q-10 3 -17 -5l-54 -91q-6 -10 5 -18l53 -38v-28q0 -17 2 -27l-53 -39q-8 -5 -4 -17l53 -92q7 -10 17 -4l62 28q20 -14 47 -28l6 -66q0 -5 4 -8t9 -3h104
q5 0 9 3t4 8l7 66q26 10 47 28l61 -28q10 -3 18 4l53 92q6 10 -4 17zM704 491q-45 0 -76 31t-31 75.5t31 75.5t76 31t76 -31t31 -75.5t-31 -75.5t-76 -31z" />
    <glyph glyph-name="automatic" unicode="&#xe607;" 
d="M832 -21h-640q-35 0 -60 25t-25 60v640q0 35 25 60t60 25h640q35 0 60 -25t25 -60v-640q0 -35 -25 -60t-60 -25zM717 354q2 9 2 30q0 19 -2 30l60 43q11 7 4 19l-58 98q-6 10 -17 6l-66 -32q-17 15 -51 30l-7 73q0 4 -4 8t-8 4h-113q-5 0 -9 -4t-4 -8l-9 -75
q-20 -7 -51 -30l-66 30q-14 4 -17 -6l-58 -99q-7 -11 4 -19l60 -42q-2 -9 -2 -30q0 -19 2 -30l-60 -43q-11 -8 -4 -19l58 -98q6 -10 17 -7l66 30q17 -14 51 -30l7 -72q0 -5 4 -9t8 -4h113q5 0 9 4t4 9l7 72q20 7 51 30l66 -30q13 -4 17 7l58 98q7 11 -5 19zM512 277
q-45 0 -76 31t-31 76t31 76t76 31t76 -31t31 -76t-31 -76t-76 -31z" />
    <glyph glyph-name="bookmark" unicode="&#xe60b;" 
d="M789 -21l-277 128l-277 -128v725q0 35 25 60t60 25h384q35 0 60 -25t25 -60v-725z" />
    <glyph glyph-name="contacts" unicode="&#xe61c;" 
d="M811 -43h-555v854h555q35 0 60 -25t25 -61v-682q0 -36 -25 -61t-60 -25zM213 811h43v-854h-43q-35 0 -60 25t-25 61v682q0 36 25 61t60 25zM555 469zM469 469.5q0 -35.5 25 -60.5t60.5 -25t60.5 25t25 60.5t-25 60.5t-60.5 25t-60.5 -25t-25 -60.5zM704 256q-2 3 -5 9
t-16 20.5t-28.5 26t-42.5 20.5t-57.5 9t-57 -8.5t-42.5 -21t-28 -25t-17 -21.5l-5 -9v-43h299v43z" />
    <glyph glyph-name="engineering" unicode="&#xe630;" 
d="M798 371l-248 47l-83 239l-81 -28l83 -236l-166 -192l64 -56l166 192l248 -47zM512 491q-45 0 -76 -31t-31 -76t31 -76t76 -31t76 31t31 76t-31 76t-76 31zM512 341q-18 0 -30.5 12.5t-12.5 30.5t12.5 30.5t30.5 12.5t30.5 -12.5t12.5 -30.5t-12.5 -30.5t-30.5 -12.5z
M868 320q7 32 7 64t-7 64l71 51q6 5 8.5 13.5t-2.5 16.5l-92 158q-11 18 -27 8l-79 -34q-47 41 -111 64l-9 88q-1 8 -7 13.5t-14 5.5h-184q-8 0 -14.5 -5.5t-6.5 -13.5l-13 -88q-64 -23 -111 -64l-79 37q-8 3 -16 0t-11 -11l-92 -158q-5 -8 -2.5 -16.5t8.5 -13.5l71 -51
q-7 -32 -7 -64t7 -64l-71 -51q-6 -5 -8.5 -13.5t2.5 -16.5l92 -158q11 -18 27 -8l79 34q47 -41 111 -64l9 -88q1 -8 7 -13.5t14 -5.5h184q8 0 14.5 5.5t6.5 13.5l8 88q65 23 111 64l79 -37q8 -3 16.5 -0.5t11.5 9.5l92 158q4 8 2 16.5t-9 13.5zM512 149q-98 0 -166.5 68.5
t-68.5 166.5t68.5 166.5t166.5 68.5t166.5 -68.5t68.5 -166.5t-68.5 -166.5t-166.5 -68.5z" />
    <glyph glyph-name="like_placeholder" unicode="&#xe64c;" 
d="M725 704q-66 0 -122.5 -31t-90.5 -84q-34 53 -90.5 84t-122.5 31q-106 0 -181 -75t-75 -181q0 -52 25.5 -108t67 -104.5t91.5 -95t100 -83t91.5 -64t67.5 -42.5l26 -15q10 5 27 15t65.5 41.5t93 64.5t98.5 82t93 96t65.5 104t26.5 109q0 106 -75 181t-181 75z" />
    <glyph glyph-name="like" unicode="&#xe64d;" 
d="M725 704q-66 0 -122.5 -31t-90.5 -84q-34 53 -90.5 84t-122.5 31q-106 0 -181 -75t-75 -181q0 -52 25.5 -108t67 -104.5t91.5 -95t100 -83t91.5 -64t67.5 -42.5l26 -15q10 5 27 15t65.5 41.5t93 64.5t98.5 82t93 96t65.5 104t26.5 109q0 106 -75 181t-181 75z" />
    <glyph glyph-name="services1" unicode="&#xe678;" 
d="M546 162q2 9 2 30q0 19 -2 30l60 43q12 7 4 19l-57 98q-7 10 -18 6l-66 -32q-17 15 -51 30l-6 73q0 4 -4 8t-9 4h-113q-5 0 -9 -4t-4 -8l-8 -75q-21 -7 -52 -30l-66 30q-13 4 -17 -6l-57 -99q-8 -11 4 -19l60 -42q-3 -9 -3 -30q0 -19 3 -30l-60 -43q-12 -8 -4 -19l57 -98
q7 -10 17 -7l66 30q18 -14 52 -30l6 -72q0 -5 4 -9t9 -4h113q5 0 9 4t4 9l6 72q20 7 51 30l66 -30q14 -4 17 7l58 98q8 11 -4 19zM341.5 85q-44.5 0 -75.5 31t-31 76t31 76t75.5 31t75.5 -31t31 -76t-31 -76t-75.5 -31zM894 570q2 10 2 27t-2 28l53 38q8 6 4 18l-53 91
q-7 11 -17 5l-62 -28q-20 14 -47 28l-6 66q1 4 -1.5 7t-7.5 3h-104q-5 0 -9 -3t-4 -7l-6 -66q-26 -10 -47 -28l-62 28q-10 3 -17 -5l-54 -91q-6 -10 5 -18l53 -38v-28q0 -17 2 -27l-53 -39q-8 -5 -4 -17l53 -92q7 -10 17 -4l62 28q20 -14 47 -28l6 -66q0 -5 4 -8t9 -3h104
q5 0 9 3t4 8l7 66q26 10 47 28l61 -28q10 -3 18 4l53 92q6 10 -4 17zM704 491q-45 0 -76 31t-31 75.5t31 75.5t76 31t76 -31t31 -75.5t-31 -75.5t-76 -31z" />
    <glyph glyph-name="settings1" unicode="&#xe679;" 
d="M845 316q4 30 4 47t-4 47l96 68q7 5 9 13t-3 17l-94 158q-11 18 -27 8l-107 -49q-38 29 -81 47l-11 117q-1 9 -7 14.5t-14 5.5h-184q-8 0 -14.5 -6t-6.5 -14l-11 -117q-49 -21 -81 -47l-106 49q-8 3 -16.5 0.5t-11.5 -8.5l-92 -158q-4 -9 -2 -17t9 -13l96 -68
q-5 -30 -5 -47t5 -47l-101 -69q-6 -5 -8.5 -13t2.5 -16l92 -158q11 -19 27 -9l107 49q38 -28 81 -47l11 -117q1 -8 7 -13.5t14 -5.5h184q8 0 14.5 5.5t6.5 13.5l11 117q49 22 81 47l106 -49q8 -3 16.5 -0.5t11.5 9.5l92 158q4 8 2 16t-9 13zM512 149q-88 0 -150.5 63
t-62.5 151t62.5 150.5t150.5 62.5t150.5 -62.5t62.5 -150.5t-62.5 -151t-150.5 -63zM512 619q-106 0 -181 -75.5t-75 -181t75 -180.5t181 -75t181 75t75 180.5t-75 181t-181 75.5zM512 256q-45 0 -76 31t-31 75.5t31 75.5t76 31t76 -31t31 -75.5t-31 -75.5t-76 -31z" />
    <glyph glyph-name="share" unicode="&#xe67a;" 
d="M813 230l-399 154l399 154q24 9 35 33t1 50q-10 24 -34 35t-49 1l-555 -213q-17 -7 -28.5 -24t-11.5 -36t11.5 -36t28.5 -24l555 -213q17 -4 23 -4q20 0 36 10.5t24 29.5q10 26 -1 50t-35 33zM235 384zM85 384q0 -62 44 -105.5t105.5 -43.5t105.5 43.5t44 105.5
t-44 105.5t-105.5 43.5t-105.5 -43.5t-44 -105.5zM789 597zM640 597.5q0 -61.5 44 -105.5t105.5 -44t105.5 44t44 105.5t-44 105.5t-105.5 44t-105.5 -44t-44 -105.5zM789 171zM640 170.5q0 -61.5 44 -105.5t105.5 -44t105.5 44t44 105.5t-44 105.5t-105.5 44t-105.5 -44
t-44 -105.5z" />
    <glyph glyph-name="sms" unicode="&#xe67c;" 
d="M789 64h-554l-128 -128v725q0 53 37.5 90.5t90.5 37.5h554q53 0 90.5 -37.5t37.5 -90.5v-469q0 -53 -37.5 -90.5t-90.5 -37.5zM512 427zM448 426.5q0 -26.5 19 -45t45 -18.5t45 18.5t19 45t-19 45.5t-45 19t-45 -19t-19 -45.5zM725 427zM661 426.5q0 -26.5 19 -45
t45.5 -18.5t45 18.5t18.5 45t-18.5 45.5t-45 19t-45.5 -19t-19 -45.5zM299 427zM235 426.5q0 -26.5 18.5 -45t45 -18.5t45.5 18.5t19 45t-19 45.5t-45.5 19t-45 -19t-18.5 -45.5z" />
    <glyph glyph-name="bianji" unicode="&#xe608;" 
d="M625 69h-494q-8 0 -13.5 -5.5t-5.5 -13.5t5.5 -13.5t13.5 -5.5h494q8 0 13.5 5.5t5.5 13.5t-5.5 13.5t-13.5 5.5zM421 223q8 0 14 6l107 107q6 6 6 14t-5.5 13.5t-13.5 5.5t-13 -6l-108 -107q-6 -6 -6 -14t6 -13.5t13 -5.5v0zM901.5 733q-5.5 6 -13.5 6t-13 -6l-294 -293
q-5 -6 -5 -14t5.5 -13.5t13.5 -5.5t13 6l294 293q5 6 5 13.5t-5.5 13.5z" />
    <glyph glyph-name="baocun" unicode="&#xe609;" 
d="M870 625l-114 118q-18 18 -43 18h-444q-41 0 -70.5 -29.5t-29.5 -70.5v-517q0 -41 29.5 -70.5t70.5 -29.5h517q42 0 71 29.5t29 70.5v440q0 23 -16 41zM375 733h306v-236q0 -16 -11 -27t-26 -11h-231q-15 0 -26.5 11t-11.5 27v236zM681 72h-306v196q0 16 11.5 27t26.5 11
h231q15 0 26 -11t11 -27v-196zM858 144q0 -30 -21 -51t-51 -21h-77v196q0 27 -19 46.5t-46 19.5h-231q-27 0 -46 -19.5t-19 -46.5v-196h-79q-29 0 -50.5 21t-21.5 51v517q0 30 21.5 51t50.5 21h79v-236q0 -27 19 -46.5t46 -19.5h231q27 0 46 19.5t19 46.5v236h4q14 0 23 -9
l114 -119q8 -9 8 -21v0v-440zM598 509q6 0 10 4t4 10v143q0 6 -4 10t-10 4t-10 -4t-4 -10v-143q0 -6 4 -10t10 -4z" />
    <glyph glyph-name="fenxiang" unicode="&#xe60a;" 
d="M836 384q0 -88 -43 -162.5t-118 -118t-163 -43.5t-162.5 43.5t-118 118t-43.5 162.5q0 129 88.5 222.5t216.5 101.5l-1 28q-140 -8 -236 -110t-96 -242q0 -71 28 -137q27 -63 75.5 -112t111.5 -75q66 -28 137.5 -28t136.5 28q64 26 112.5 75t75.5 112q27 66 27 137h-28z
M487 401l20 -20l318 306v-169h28v216h-218v-28h170z" />
    <glyph glyph-name="guanbi" unicode="&#xe60c;" 
d="M846 528q-28 66 -79 117.5t-118 79.5q-68 29 -144 29q-111 0 -203 -61q-11 -7 -3.5 -19t19.5 -4q85 56 187 56q93 0 172 -46t124.5 -124.5t45.5 -171.5t-45.5 -172t-124.5 -124.5t-172 -45.5t-171.5 45.5t-124.5 124.5t-46 172q0 103 56 188q8 12 -3.5 19.5t-19.5 -4.5
q-61 -92 -61 -203q0 -75 29 -144q28 -67 79.5 -118t117.5 -79q69 -29 144.5 -29t143.5 29q67 28 118 79t79 118q29 69 29 144t-29 144zM401 271q4 -4 9.5 -4t9.5 4l89 89l89 -89q4 -4 9.5 -4t10.5 4q9 10 0 20l-89 88l89 89q9 10 -0.5 20t-19.5 0l-89 -89l-89 89
q-10 10 -19.5 0t0.5 -20l88 -89l-88 -88q-10 -10 0 -20z" />
    <glyph glyph-name="xuanze" unicode="&#xe60f;" 
d="M851 530q-28 66 -79.5 117.5t-117.5 79.5q-69 29 -144 29q-111 0 -203 -61q-12 -7 -4.5 -19t19.5 -4q85 56 188 56q93 0 171.5 -46t124.5 -124.5t46 -171.5t-46 -172t-124.5 -124.5t-171.5 -45.5t-172 45.5t-124.5 124.5t-45.5 172q0 103 56 188q8 12 -4 19.5t-19 -4.5
q-61 -92 -61 -203q0 -75 29 -144q28 -67 79 -118t118 -79q68 -29 143.5 -29t144.5 29q66 28 117.5 79t79.5 118q29 69 29 144t-29 144zM478 241q6 0 10 4l197 197q10 10 0 20t-19 0l-188 -187l-90 90q-10 10 -20 0t0 -20l100 -100q5 -4 10 -4v0z" />
    <glyph glyph-name="shoucang" unicode="&#xe612;" 
d="M728 63q-7 0 -13 3l-204 124l-205 -124q-15 -8 -28 1v0q-11 8 -11 21q0 3 1 6l54 233l-181 156q-8 8 -8 19q0 4 1 8q5 16 22 18l238 20l93 220q7 16 24 16v0v0q16 0 23 -16l93 -220l238 -20q17 -2 22 -18v0q1 -4 1 -8q0 -11 -8 -19l-181 -156l54 -233q1 -3 1 -6
q0 -13 -11 -21v0q-6 -4 -15 -4zM511 222l214 -129l-57 244l189 163l-249 22l-97 230l-98 -230l-249 -22l189 -163l-56 -244z" />
    <glyph glyph-name="diannao" unicode="&#xe615;" 
d="M905 107h-777q-13 0 -22.5 9.5t-9.5 21.5v600q0 13 9.5 22.5t22.5 9.5h777q13 0 22 -9.5t9 -22.5v-600q0 -12 -9 -21.5t-22 -9.5zM134 145h764v587h-764v-587zM901 305h-782q-8 0 -13.5 5.5t-5.5 13.5t5.5 13.5t13.5 5.5h782q8 0 13.5 -5.5t5.5 -13.5t-5.5 -13.5
t-13.5 -5.5zM519 233zM495 233q0 -10 7 -17t17 -7t17 7t7 17t-7 17t-17 7t-17 -7t-7 -17zM519 9q-8 0 -13.5 5.5t-5.5 12.5v94q0 7 5.5 13t13.5 6t13.5 -6t5.5 -13v-94q0 -7 -5.5 -12.5t-13.5 -5.5zM732 -2h-427q-7 0 -13 5.5t-6 13.5t6 13.5t13 5.5h427q8 0 13.5 -5.5
t5.5 -13.5t-5.5 -13.5t-13.5 -5.5z" />
    <glyph glyph-name="gengduo" unicode="&#xe616;" 
d="M512.5 31q-75.5 0 -144.5 29q-66 28 -117.5 79t-79.5 118q-29 68 -29 144q0 111 61 203q8 12 19.5 4t3.5 -19q-56 -86 -56 -188q0 -93 46 -172t124.5 -125t171.5 -46t172 46t124.5 125t45.5 171.5t-45.5 171.5t-124.5 125t-172 46q-102 0 -187 -56q-12 -8 -19.5 3.5
t3.5 19.5q93 61 203 61q76 0 144 -29q67 -28 118 -79.5t79 -117.5q29 -69 29 -144.5t-29 -143.5q-28 -67 -79 -118t-118 -79q-68 -29 -143.5 -29zM416 181v0q-5 0 -9 4q-10 10 0 19l197 198l-199 200q-10 10 0 19.5t20 -0.5l209 -209q4 -4 4 -10t-4 -10l-208 -207
q-4 -4 -10 -4v0z" />
    <glyph glyph-name="xuanze1" unicode="&#xe617;" 
d="M851 530q-28 66 -79.5 117.5t-117.5 79.5q-69 29 -144 29q-111 0 -203 -61q-12 -7 -4.5 -19t19.5 -4q85 56 188 56q93 0 171.5 -46t124.5 -124.5t46 -171.5t-46 -172t-124.5 -124.5t-171.5 -45.5t-172 45.5t-124.5 124.5t-45.5 172q0 103 56 188q8 12 -4 19.5t-19 -4.5
q-61 -92 -61 -203q0 -75 29 -144q28 -67 79 -118t118 -79q68 -29 143.5 -29t144.5 29q66 28 117.5 79t79.5 118q29 69 29 144t-29 144zM478 241q6 0 10 4l197 197q10 10 0 20t-19 0l-188 -187l-90 90q-10 10 -20 0t0 -20l100 -100q5 -4 10 -4v0z" />
    <glyph glyph-name="shanchu" unicode="&#xe618;" 
d="M819 578q-6 0 -10 -4t-4 -10v-464q0 -22 -16 -38.5t-39 -16.5h-481q-23 0 -39 16.5t-16 38.5v469q0 6 -4 10t-9.5 4t-9.5 -4t-4 -10v-469q0 -34 24 -58t58 -24h481q34 0 58.5 24t24.5 58v464q0 6 -4 10t-10 4zM853 681h-206h-1v0q-2 0 -3 1l-64 64q-4 4 -9 4v0h-120
q-6 0 -10 -4l-63 -64q-2 -1 -3 -1h-1h-1h-206q-6 0 -10 -4t-4 -9.5t4 -9.5t10 -4h206h1h1q13 0 22 9l60 59h108l59 -59q10 -9 23 -9h1h206q6 0 10 4t4 9.5t-4 9.5t-10 4zM386 152v412q0 6 -4 10t-9.5 4t-9.5 -4t-4 -10v-412q0 -6 4 -10t9.5 -4t9.5 4t4 10zM523 152v412
q0 6 -4 10t-9.5 4t-9.5 -4t-4 -10v-412q0 -6 4 -10t9.5 -4t9.5 4t4 10zM661 152v412q0 6 -4 10t-10 4t-10 -4t-4 -10v-412q0 -6 4 -10t10 -4t10 4t4 10z" />
    <glyph glyph-name="notebook" unicode="&#xe60d;" 
d="M344 864h582v-960h-582v960zM322 864h-160v-75h70v-32h-70v-125h70v-32h-70v-123h70v-32h-70v-123h70v-32h-70v-124h70v-32h-70v-123h70v-32h-70v-75h182v960h-22zM130 896v-107h-64v-32h64v-123h-64v-32h64v-124h-64v-32h64v-123h-64v-32h64v-123h-64v-32h64v-123h-64
v-32h64v-109h828v1024h-828zM926 -96h-764v75h70v32h-70v123h70v32h-70v124h70v32h-70v123h70v32h-70v123h70v32h-70v125h70v32h-70v75h764v-960z" />
    <glyph glyph-name="school" unicode="&#xe60e;" 
d="M32 507h960v-603h-960v603zM496 774l-101 61l101 61v-122zM157 312h53v-48h-53v48zM157 395h53v-51h-53v51zM242 312h52v-48h-52v48zM240 395h53v-51h-53v51zM125 427v-195h201v195h-201zM293 344h-53v51h53v-51zM210 264h-53v48h53v-48zM210 344h-53v51h53v-51zM294 264
h-52v48h52v-48zM443 395h53v-51h-53v51zM443 312h53v-48h-53v48zM528 395h53v-51h-53v51zM528 312h53v-48h-53v48zM411 427v-195h202v195h-202zM496 312v-48h-53v48h53zM443 344v51h53v-51h-53zM528 264v48h53v-48h-53zM581 344h-53v51h53v-51zM731 395h53v-51h-53v51z
M814 395h53v-51h-53v51zM814 312h53v-48h-53v48zM730 312h52v-48h-52v48zM699 427v-195h202v195h-202zM782 264h-52v48h52v-48zM784 344h-53v51h53v-51zM867 264h-53v48h53v-48zM867 344h-53v51h53v-51zM427 88h170v-184h-170v184zM528 539v357h-32v-357h-496v-667h1024v667
h-496zM597 -96h-170v184h170v-184zM992 -96h-363v216h-234v-216h-363v603h960v-603z" />
    <glyph glyph-name="speech-bubble" unicode="&#xe610;" 
d="M945 824h-865q-20 0 -34 -13.5t-14 -33.5v-551q0 -19 13.5 -32.5t33.5 -13.5h424l9 -7l243 -194v201h190q20 0 33.5 13.5t13.5 32.5v551q0 20 -13.5 33.5t-33.5 13.5zM945 856h-865q-33 0 -56.5 -23t-23.5 -56v-551q0 -32 23 -55t56 -23h413l295 -236v236h158q33 0 56 23
t23 55v551q0 33 -23 56t-56 23zM992 226q0 -19 -13.5 -32.5t-33.5 -13.5h-190v-201l-243 194l-9 7h-424q-20 0 -33.5 13.5t-13.5 32.5v551q0 20 14 33.5t34 13.5h865q20 0 33.5 -13.5t13.5 -33.5v-551zM273 496zM216 496.5q0 -23.5 17 -40.5t40.5 -17t40 17t16.5 40.5
t-16.5 40.5t-40 17t-40.5 -17t-17 -40.5zM512 496zM455 496.5q0 -23.5 16.5 -40.5t40.5 -17t40.5 17t16.5 40.5t-16.5 40.5t-40.5 17t-40.5 -17t-16.5 -40.5zM751 496zM694 496.5q0 -23.5 16.5 -40.5t40 -17t40.5 17t17 40.5t-17 40.5t-40.5 17t-40 -17t-16.5 -40.5z" />
    <glyph glyph-name="icon" unicode="&#xe62d;" 
d="M32 383.5q0 -97.5 38 -186t102 -152.5t153 -102t186.5 -38t186 38t152.5 102t102 152.5t38 186t-38 186t-102 153t-152.5 102t-186 37.5t-186.5 -37.5t-153 -102t-102 -153t-38 -186zM410 642v-1.5t1 -2.5l1 -3q0 1 2 2q11 11 26 16l-15 -8v1q4 2 9 3q4 2 11 3q5 1 11 2
q3 1 13 2l7 1q4 0 8 1q9 1 17 3q9 3 17 6q9 4 16 9q7 6 12 12q5 7 7 14v1l1 2v3v2v3v2v1.5v1.5q-1 1 -1 2v2q-1 -1 -2.5 -2t-2.5 -1l-2 -2q-4 -3 -8 -4.5t-9 -2.5q-4 -1 -10 -1q-4 -1 -12 -1q-10 -1 -15 -1q-8 -1 -15 -2q-5 -1 -9 -2h-2q-6 -1 -12 -4l6 2h-1q-19 -6 -33 -18
q3 3 0 0t-5 -6l12 12l-3 -3q-11 -9 -17 -21q6 9 5.5 9t-3.5 -5q-4 -7 -5 -14q-1 -5 -1 -11zM413 703v2q0 2 0.5 3t0.5 2v3t-1 2v2v1v2l-1 2l-2 -2t-2 -1l-3 -2q-3 -3 -7 -4.5t-10 -2.5q-4 -1 -10 -1q-3 -1 -12 -1q-9 -1 -14 -1q-9 -1 -16 -2q-5 -1 -9 -2h-2q-6 -1 -11 -4
l5 2h-1q-19 -6 -33 -18q4 3 0.5 0t-5.5 -6l13 12q-3 -2 -4 -3q-11 -9 -17 -21q6 9 5.5 9t-3.5 -5q-3 -7 -5 -14q-1 -5 0 -11v-2l0.5 -1.5t0.5 -2.5l1 -3l2 2q12 11 27 16l-16 -8l1 1q4 2 9 3q4 2 10 3q5 1 12 2q2 1 13 2l6 1q5 0 8 1q9 1 17 3q9 3 17 6q9 4 16 9q7 6 12 12
q5 7 7 14zM894 140h-32v277l-184 91v-91l-183 91v-91l-44 22v181h-88v-138l-52 26v112h-87v-480h-41v-33h711v33zM200 644h44v-488h-44v488zM244 644h44v-488h-44v488zM340 644h44v-488h-44v488zM384 644h43v-488h-43v488zM200 598h88v-20h-88v20zM340 598h87v-20h-87v20z
M288 531v-375h183v285zM655 531v-375h183v285zM471 531v-375h184v285zM349 382h30v-61h-30v61zM379 382h31v-61h-31v61zM533 382h30v-61h-30v61zM563 382h30v-61h-30v61zM716 382h30v-61h-30v61zM746 382h31v-61h-31v61zM349 272h30v-61h-30v61zM379 272h31v-61h-31v61z
M533 272h30v-61h-30v61zM563 272h30v-61h-30v61zM716 272h30v-61h-30v61zM746 272h31v-61h-31v61zM529 745l1 -2v-1l0.5 -1.5t0.5 -2.5v-2v-2q0 -3 -1 -6v0v-1l-1 -2q-2 -7 -6 -13q-5 -7 -13 -12q-7 -5 -16 -9q-8 -4 -17 -6q-8 -2 -17 -4q-3 0 -7 -1h-7q-11 -2 -13 -2
q-7 -1 -12 -2q-6 -2 -10 -3q-5 -2 -9 -4q-3 -2 -7 -4q-13 -10 -20 -24l13 18v0q0 1 -1 2q0 1 -0.5 3l-0.5 2v2q-1 5 0 11q2 7 6 14t11 13q9 9 22 14l-15 -8v0q2 2 4 3q11 7 24 9h-3q5 3 18 4l-13 -2h2l3 1q3 1 8 1q7 2 16 2q5 1 14 1q9 1 12 1q7 1 11 2q5 1 9 2.5t7 3.5
q1 0 3 2l2 2zM388 745q1 0 1 -2v-1l1 -2v-2v-2v-2q0 -3 -1 -6v0v-1v-2q-2 -7 -7 -13q-5 -7 -13 -12q-7 -5 -16 -9q-7 -4 -17 -6q-7 -2 -16 -4q-18 -2 -38 -3l23 2q-11 -2 -13 -2l-12 -2q-6 -2 -10 -3q-5 -2 -9 -4q-3 -2 -7 -4q-13 -10 -20 -24l14 18v0q-1 1 -1 2
q-1 1 -1.5 3l-0.5 2v2q-1 5 1 11q1 7 5 14t11 13q10 10 23 14l-16 -8v0q2 2 4 3q11 7 24 9h-3q5 3 19 4l-14 -2h3l2 1q3 1 8 1q7 2 16 2q5 1 14 1q9 1 13 1q6 1 10 2q5 1 9 2.5t7 3.5q1 0 3 2l2 2l2 1v0zM160 164h711v-34h-711v34z" />
    <glyph glyph-name="doc" unicode="&#xe61d;" 
d="M663 816h-468q-24 0 -40.5 -17t-16.5 -41v-777q0 -24 16.5 -41t40.5 -17v0h634q24 0 40.5 17t16.5 41v612zM663 845h-468q-24 0 -40.5 -17t-16.5 -41v-777q0 -24 16.5 -41t40.5 -17v0h634q24 0 40.5 17t16.5 41v612zM764 744l-100 -101l222 -222v201zM663 845h-7v-173
q0 -24 17 -41t41 -17h172v8zM274 442h476q9 0 15 6t6 15t-6 15.5t-15 6.5h-476q-9 0 -15 -6.5t-6 -15.5t6 -15t15 -6zM750 355h-476q-9 0 -15 -6t-6 -15t6 -15.5t15 -6.5h476q9 0 15 6.5t6 15.5t-6 15t-15 6zM750 226h-476q-9 0 -15 -6.5t-6 -15.5t6 -15.5t15 -6.5h476
q9 0 15 6.5t6 15.5t-6 15.5t-15 6.5zM274 571h231q9 0 15 6.5t6 15.5t-6 15t-15 6h-231q-9 0 -15 -6t-6 -15t6 -15.5t15 -6.5z" />
    <glyph glyph-name="set" unicode="&#xe620;" 
d="M512 493q-51 0 -87 -36t-36 -87.5t36 -87.5t87 -36t87 36t36 87.5t-36 87.5t-87 36zM917 455l-85 5q-11 39 -31 73l57 62q13 13 13 30t-13 29l-61 62q-12 12 -29.5 12t-29.5 -12l-63 -57q-34 20 -72 30l-6 85v0q0 18 -12 30t-29 12v0h-88v0q-17 0 -29 -12t-12 -30v0
l-6 -85q-38 -10 -72 -30l-63 57q-12 12 -29.5 12t-29.5 -12l-61 -62q-13 -12 -13 -29t13 -30l56 -62q-19 -34 -30 -73l-85 -5v0q-17 0 -29 -12t-12 -30v0v-87v0q0 -17 12 -29.5t29 -12.5v0l85 -5q11 -38 30 -73l-56 -62q-13 -12 -13 -29.5t13 -29.5l61 -62q12 -12 29.5 -12
t29.5 12l63 57q34 -20 72 -30l6 -85v0q0 -17 12 -29.5t29 -12.5v0h88v0q17 0 29 12.5t12 29.5v0l6 85q38 10 72 30l63 -57q12 -12 29.5 -12t29.5 12l61 62q13 12 13 29.5t-13 29.5l-57 62q20 35 31 73l85 5v0q17 0 29 12.5t12 29.5v0v87v0q0 18 -12 30t-29 12v0zM512 170
q-83 0 -141 58.5t-58 141t58 141t141 58.5t141 -58.5t58 -141t-58 -141t-141 -58.5zM917 484l-85 5q-11 38 -31 73l57 62q13 12 13 29.5t-13 29.5l-61 62q-12 12 -29.5 12t-29.5 -12l-63 -57q-34 20 -72 30l-6 85v0q0 17 -12 29.5t-29 12.5v0h-88v0q-17 0 -29 -12.5
t-12 -29.5v0l-6 -85q-38 -10 -72 -30l-63 57q-12 12 -29.5 12t-29.5 -12l-61 -62q-13 -12 -13 -29.5t13 -29.5l56 -62q-19 -35 -30 -73l-85 -5v0q-17 0 -29 -12.5t-12 -29.5v0v-87v0q0 -18 12 -30t29 -12v0l85 -5q11 -39 30 -73l-56 -62q-13 -13 -13 -30t13 -29l61 -62
q12 -12 29.5 -12t29.5 12l63 57q34 -20 72 -30l6 -85v0q0 -18 12 -30t29 -12v0h88v0q17 0 29 12t12 30v0l6 85q38 10 72 30l63 -57q12 -12 29.5 -12t29.5 12l61 62q13 12 13 29t-13 30l-57 62q20 34 31 73l85 5v0q17 0 29 12t12 30v0v87v0q0 17 -12 29.5t-29 12.5v0z
M512 199q-83 0 -141 58.5t-58 141t58 141t141 58.5t141 -58.5t58 -141t-58 -141t-141 -58.5zM512 522q-51 0 -87 -36t-36 -87.5t36 -87.5t87 -36t87 36t36 87.5t-36 87.5t-87 36zM512 370zM440 369.5q0 -29.5 21 -50.5t51 -21t51 21t21 50.5t-21 51t-51 21.5t-51 -21.5
t-21 -51zM512 398zM440 398.5q0 -29.5 21 -51t51 -21.5t51 21.5t21 51t-21 50.5t-51 21t-51 -21t-21 -50.5zM512 522q-51 0 -87 -36t-36 -88h246q0 52 -36 88t-87 36zM917 484l-85 5q-11 38 -31 73l57 62q13 12 13 29.5t-13 29.5l-61 62q-12 12 -29.5 12t-29.5 -12l-63 -57
q-34 20 -72 30l-6 85v0q0 17 -12 29.5t-29 12.5v0h-88v0q-17 0 -29 -12.5t-12 -29.5v0l-6 -85q-38 -10 -72 -30l-63 57q-12 12 -29.5 12t-29.5 -12l-61 -62q-13 -12 -13 -29.5t13 -29.5l56 -62q-19 -35 -30 -73l-85 -5v0q-17 0 -29 -12.5t-12 -29.5v0v-44h247q0 83 58 141.5
t141 58.5t141 -58.5t58 -141.5h247v44v0q0 17 -12 29.5t-29 12.5v0z" />
    <glyph glyph-name="maillist" unicode="&#xe629;" 
d="M864 772h-30q-25 0 -42.5 -18t-17.5 -43v-105q0 -25 17.5 -43t42.5 -18h30q26 0 43.5 18t17.5 43v105q0 25 -17.5 43t-43.5 18zM864 500h-30q-25 0 -42.5 -18t-17.5 -43v-105q0 -25 17.5 -43t42.5 -18h30q26 0 43.5 18t17.5 43v105q0 25 -17.5 43t-43.5 18zM864 228h-30
q-25 0 -42.5 -17.5t-17.5 -43.5v-105q0 -25 17.5 -43t42.5 -18h30q26 0 43.5 18t17.5 43v105q0 26 -17.5 43.5t-43.5 17.5zM849 1h31v227h-31v-227zM849 772v-227h31v227h-31zM849 273h31v227h-31v-227zM774 847h-559v-921h559q31 0 53 22t22 53v771q0 31 -22 53t-53 22z
M200 847h-46q-25 0 -42.5 -17.5t-17.5 -42.5v-801q0 -25 17.5 -42.5t42.5 -17.5h61v921h-15zM610 336q-11 -14 -29 -21t-42 -7q-26 0 -46 8.5t-31 26t-11 39.5q0 23 10 43.5t29.5 32t47.5 11.5q33 0 51.5 -17t18.5 -43q0 -14 -6.5 -27t-17.5 -21q-8 -6 -13 -6v0q-1 0 -2.5 1
t-1.5 4q0 2 2 9l15 74h-27l-2 -11q-9 14 -28 14q-25 0 -42 -25q-14 -20 -14 -44q0 -20 11.5 -31.5t28.5 -11.5q16 0 28 11q2 -5 6 -8t13 -3q32 0 52 27q16 21 16 47q0 22 -10.5 41t-31 29t-46.5 10q-30 0 -54 -12.5t-37.5 -37.5t-13.5 -54q0 -27 12 -49.5t36.5 -34
t58.5 -11.5q36 0 60 14q22 12 32 33h-22zM545 380q-4 -12 -9 -18q-4 -4 -8 -7q-5 -2 -11 -2v0q-8 0 -13.5 6t-5.5 19q0 10 4 22.5t11.5 19.5t16.5 7q8 0 13.5 -6t5.5 -18q0 -11 -4 -23z" />
    <glyph glyph-name="notes" unicode="&#xe62a;" 
d="M925 543h-906v-540q0 -33 23.5 -56.5t56.5 -23.5h826q33 0 56.5 23.5t23.5 56.5v540h-80zM19 34h986v16h-986v-16zM19 432v-16h986v16h-986zM19 162h986v15h-986v-15zM19 289h986v16h-986v-16zM194 543h16v-620h-16v620zM925 845h-826q-33 0 -56.5 -23.5t-23.5 -56.5
v-222h986v222q0 33 -23.5 56.5t-56.5 23.5zM361.5 752q-5.5 0 -8.5 -3t-3 -9v-60h-1l-50 67q-2 2 -5 3.5t-5 1.5q-5 0 -8.5 -3t-3.5 -9v-90q0 -6 3.5 -9.5t8.5 -3.5t8.5 3.5t3.5 9.5v59v0l50 -66q2 -3 5 -4.5t5 -1.5q6 0 9 3.5t3 9.5v90q0 6 -3 9t-8.5 3zM484.5 736
q-7.5 8 -17.5 12.5t-22 4.5t-22 -4.5t-17.5 -12.5t-11.5 -18.5t-4 -23t4 -23t11.5 -18.5t17.5 -12.5t22 -4.5t22 4.5t17.5 12.5t11.5 18.5t4 23.5v0q0 12 -5 23q-3 10 -10.5 18zM473 681q-2 -6 -6 -12q-3 -5 -9 -8t-13.5 -3t-13 3t-9.5 8q-3 6 -5 12q-2 7 -2 14v0
q0 7 2 13.5t5.5 11.5t9 8t13 3t13 -3t9.5 -8t6 -11.5t2 -13.5v0q0 -7 -2 -14zM578 751h-59q-5 0 -8 -3t-3 -7.5t2.5 -8t8.5 -3.5h17v-79q0 -6 3.5 -9.5t8.5 -3.5t8.5 3.5t3.5 9.5v79h18q5 0 7.5 3.5t2.5 8t-2.5 7.5t-7.5 3zM655 660h-30v24h26q6 0 9 3.5t3 7.5t-3 7.5
t-9 3.5h-26v23h28q6 0 9 3.5t3 8t-3 7.5t-9 3h-39q-6 0 -9 -3.5t-3 -9.5v-88q0 -5 3.5 -8.5t8.5 -3.5h41q5 0 8 3.5t3 7.5t-3 7.5t-8 3.5zM754.5 689.5q-3.5 6.5 -10 10.5t-12.5 6q-8 2 -13 4q-6 2 -10 4t-4 6q0 5 4 7.5t9 2.5v0q4 0 6.5 -0.5t5 -1.5t5.5 -2h4q5 0 8 3.5
t3 8t-4 7.5t-8 5q-5 2 -10.5 2.5t-8.5 0.5v0q-8 0 -15 -2.5t-12.5 -7t-9 -11.5t-3.5 -15q0 -9 4 -14.5t10 -9t13 -5.5q6 -2 13 -3q6 -2 9.5 -5t3.5 -7q0 -6 -4 -10t-12 -4q-4 0 -7.5 1t-6.5 2t-7 2q-2 1 -5 1q-5 0 -8 -3t-3 -8t4 -8.5t10.5 -5.5t13 -3t11.5 -1v0q8 0 15 3
q7 2 13 7t9 12t3 15q0 10 -3.5 16.5z" />
    <glyph glyph-name="usercard" unicode="&#xe62b;" 
d="M839 850h-654q-31 0 -52.5 -22t-21.5 -52v-773q0 -31 21.5 -53t52.5 -22h457l271 272v576q0 30 -21.5 52t-52.5 22zM438 776h-223v0q-13 0 -21.5 -9t-8.5 -21v-208q0 -13 8.5 -21.5t21.5 -8.5h223q12 0 20.5 8.5t8.5 21.5v208q0 12 -8.5 21t-20.5 9zM542 107h-357v-30
h357v30zM482 255h-297v-29h297v29zM334 181h-149v-30h149v30zM334 404h-149v-30h149v30zM780 330h-595v-30h595v30zM586 538h-59v-30h59v30zM661 612h-134v-30h134v30zM809 686h-282v-29h282v29zM601 508h164v30h-164v-30zM676 582h163v30h-163v-30zM363 374h476v30h-476
v-30zM780 508h59v30h-59v-30zM512 226h327v29h-327v-29zM527 761v-30h312v30h-312zM363 3h327v29h-327v-29zM185 3h149v29h-149v-29zM720 151h119v30h-119v-30zM571 77h119v30h-119v-30zM363 151h327v30h-327v-30zM325 594q21 0 36 18t15 43t-15 42.5t-36 17.5t-36 -17.5
t-15 -42.5t15 -43t36 -18zM413 538q-9 28 -23 44q-6 6 -13.5 6t-11.5 -3l-4 -3q-7 -15 -30 -15h-8q-11 0 -18.5 3.5t-9.5 7.5l-2 4q-16 15 -30 0q-6 -7 -11.5 -18t-8.5 -19l-3 -7l-6 -15q0 -7 3.5 -10.5t6.5 -4.5h4h157q2 0 4.5 0.5t6.5 4t4 10.5zM670 189l-150 -261h122
l175 176zM690 196v0q-18 0 -31 -13t-13 -32v-219l263 264h-219z" />
    <glyph glyph-name="card" unicode="&#xe62c;" 
d="M893 761h-773q-30 0 -52 -22t-22 -53v-594q0 -31 22 -52.5t52 -21.5h773q31 0 53 21.5t22 52.5v594q0 31 -22 53t-53 22zM849 523h-684v0q-18 0 -31.5 -13t-13.5 -32v0v-342v0q0 -18 13.5 -31t31.5 -13v0h684v0q18 0 31 13t13 31v0v342q0 19 -13 32t-31 13zM210 181h89
v89h-89v-89zM477 270h-119v-30h119v30zM210 345h89v89h-89v-89zM566 374h-208v-29h208v29zM626 434h-268v-30h268v30zM641 181h163v30h-163v-30zM358 181h238v30h-238v-30zM611 345h193v29h-193v-29zM774 434h-104v-30h134v30h-30zM522 240h282v30h-282v-30zM165 686v0
q-18 0 -31.5 -13t-13.5 -31v0v0q0 -19 13.5 -32t31.5 -13v0v0q18 0 31.5 13t13.5 32v0v0q0 18 -13.5 31t-31.5 13v0zM299 686v0q-19 0 -32 -13t-13 -31v0v0q0 -19 13 -32t32 -13v0v0q18 0 31 13t13 32v0v0q0 18 -13 31t-31 13v0zM433 686v0q-19 0 -32 -13t-13 -31v0v0
q0 -19 13 -32t32 -13v0v0q18 0 31 13t13 32v0v0q0 18 -13 31t-31 13v0z" />
  </font>
</defs>
</svg>
